<svg id="Layer_1" xmlns="http://www.w3.org/2000/svg" width="124" height="56"><style>.st0,.st1{fill:#fff}.st1{fill-rule:evenodd;clip-rule:evenodd}</style><path class="st0" d="M70.5 5.8v6.1l7.4-1.2v-3c0-6-1.9-7.5-7.9-7.5H51c-6 0-7.9 1.5-7.9 7.5v16.8c0 6 1.9 7.5 7.9 7.5h19c6 0 7.9-1.5 7.9-7.5v-3.8l-7.4-1.5V26h-20V5.8h20z"/><path class="st1" d="M80.8 32h7.3V20h7L108 32h10.6l-14.7-12h4.2c4.9 0 7.2-1.7 7.2-6.2V6.3c0-4.4-2.3-6.2-7.2-6.2H80.8V32zm23.9-26.4c2.3 0 3.3.4 3.3 2.5V12c0 2.1-1.1 2.5-3.3 2.5H88.1V5.6h16.6z"/><path class="st0" d="M35.4 31.6h7.1L25.1.1h-7L.7 31.6h7l1.8-3.2h18.9l-2.2-4.7H12.1l9.5-17.3zM8.3 41.4h.9v-3.3l2.3 2.7h.2L14 38v3.4h1.1v-5h-1l-2.4 3-2.5-3h-.9v5zM15.7 41.4h5.4v-.9h-4.2v-1.2h2.4v-.9h-2.4v-1.1h4.2v-.9h-5.4v5z"/><path class="st1" d="M21.7 41.4h1.2v-1.9H24l2.1 1.9h1.7l-2.4-1.9h.7c.8 0 1.2-.3 1.2-1v-1.2c0-.7-.4-1-1.2-1h-4.5v5.1h.1zm4-4.1c.4 0 .6.1.6.4v.6c0 .3-.2.4-.6.4h-2.8v-1.4h2.8z"/><path class="st0" d="M28.4 41.4h1.2v-5h-1.2v5zM34.9 37.3v.9l1.2-.2v-.5c0-.9-.3-1.2-1.3-1.2h-3.1c-1 0-1.3.2-1.3 1.2v2.6c0 .9.3 1.2 1.3 1.2h3.1c1 0 1.3-.2 1.3-1.2v-.6l-1.2-.2v1.1h-3.3v-3.1h3.3zM43.2 41.4h1.1v-3.3l4.2 3.3h.8v-5h-1.1v3.3L44 36.4h-.8v5zM60.4 36.4v1.2l1.4-.2v-.6c0-1.1-.4-1.4-1.5-1.4h-3.6c-1.1 0-1.5.3-1.5 1.4V40c0 1.1.4 1.4 1.5 1.4h3.6c1.1 0 1.5-.3 1.5-1.4v-.7l-1.4-.3v1.3h-3.8v-3.8h3.8v-.1z"/><path class="st1" d="M62.8 37.6v2.6c0 .9.3 1.2 1.3 1.2H68c1 0 1.3-.2 1.3-1.2v-2.6c0-1-.3-1.2-1.3-1.2h-3.8c-1.1 0-1.4.3-1.4 1.2zm1.2 2.9v-3.1h4v3.1h-4z"/><path class="st0" d="M70.1 41.4h5.1v-.9h-3.9v-4.1h-1.2v5zM75.9 41.4H81v-.9h-3.9v-4.1h-1.2v5zM81.5 41.4h5.4v-.9h-4.1v-1.2h2.4v-.9h-2.4v-1.1h4.1v-.9h-5.4v5zM92.6 37.3v.5l1.2-.2v-.1c0-.9-.4-1.1-1.3-1.1h-3.6c-1 0-1.3.2-1.3 1.2v2.6c0 .9.3 1.2 1.3 1.2h3.6c1 0 1.3-.2 1.3-1.2v-1.7h-3.2v.9h2v1.1h-3.8v-3.1h3.8v-.1zM94.6 41.4h5.4v-.9h-4.2v-1.2h2.4v-.9h-2.4v-1.1h4.1v-.9h-5.3v5z"/><path class="st1" d="M105.7 37.6v2.6c0 .9.3 1.2 1.3 1.2h3.8c1 0 1.3-.2 1.3-1.2v-2.6c0-1-.3-1.2-1.3-1.2H107c-1 0-1.3.3-1.3 1.2zm1.2 2.9v-3.1h4v3.1h-4z"/><path class="st0" d="M113.2 41.4h1.2v-1.9h2.2v-.9h-2.2v-1.3h4.1v-.9h-5.3v5zM1.6 40.8h3.7l-.4-.9H2.1l-.5.9z"/><path class="st0" d="M4 36.5l-2.6 4.9H0l3.4-6.1H4.7l3.4 6.1H6.7L4 36.5zM37.6 40.9h3l-.3-.7H38l-.4.7z"/><path class="st0" d="M39.6 37.4l-2.2 4h-1.2l2.8-5h1.1l2.8 5h-1.1l-2.2-4z"/><g><path class="st1" d="M0 55.5h2.7V51h2.6l4.8 4.5H14L8.6 51h1.6c1.8 0 2.7-.6 2.7-2.3v-2.8c0-1.7-.8-2.3-2.7-2.3H0v11.9zm8.9-9.8c.8 0 1.2.2 1.2.9V48c0 .8-.4.9-1.2.9H2.7v-3.3h6.2v.1zM28.5 55.5h6.6c4.7 0 7.1-1.8 7.1-5.4 0-3.3-2.2-5.4-6.5-5.4h-7.3v10.8h.1zm2.6-2v-6.8h4.6c2.5 0 3.8 1 3.8 3.3 0 2.8-1.7 3.5-5 3.5h-3.4z"/><path class="st0" d="M43.7 55.5h2.6V44.7h-2.6v10.8z"/><path class="st1" d="M47.9 47.2v5.7c0 2 .7 2.6 2.8 2.6H59c2.1 0 2.8-.5 2.8-2.6v-5.7c0-2.1-.7-2.6-2.8-2.6h-8.3c-2.1.1-2.8.6-2.8 2.6zm2.6 6.2v-6.7h8.7v6.7h-8.7z"/><path class="st0" d="M63.4 55.5h11.2v-2h-8.5v-8.8h-2.7v10.8z"/><path class="st1" d="M75.3 47.2v5.7c0 2 .7 2.6 2.8 2.6h8.3c2.1 0 2.8-.5 2.8-2.6v-5.7c0-2.1-.7-2.6-2.8-2.6h-8.3c-2.1.1-2.8.6-2.8 2.6zm2.7 6.2v-6.7h8.7v6.7H78z"/><path class="st0" d="M101.6 46.7v1.1l2.6-.4v-.3c0-1.9-.8-2.4-2.8-2.4h-7.8c-2.1 0-2.8.5-2.8 2.6V53c0 2 .7 2.6 2.8 2.6h7.8c2.1 0 2.8-.5 2.8-2.6v-3.7h-6.9v1.9h4.3v2.3h-8.2v-6.7h8.2v-.1zM110 55.5h2.7v-4.9l5.8-5.9h-3l-3.9 4-3.9-4h-3.6l5.9 5.9v4.9zM17 54.4h6.4l-.7-1.6h-5l-.7 1.6z"/><path class="st0" d="M21.2 46.8l-4.7 8.7h-2.4L20 44.7h2.4l6 10.8H26l-4.8-8.7z"/></g><g><path class="st0" d="M120.5 0c2 0 3.5 1.6 3.5 3.6s-1.6 3.6-3.5 3.6c-2 0-3.5-1.6-3.5-3.6-.1-2 1.5-3.6 3.5-3.6zm0 .6c-1.6 0-2.9 1.3-2.9 3s1.3 3 2.9 3c1.6 0 2.9-1.3 2.9-3s-1.3-3-2.9-3zm-.7 5.1h-.6v-4c.3 0 .7-.1 1.1-.1.6 0 1 .1 1.2.3.2.2.4.4.4.8 0 .5-.3.8-.8 1 .3.1.6.4.7 1 .1.6.2.9.3 1h-.7c-.1-.1-.2-.5-.3-1-.1-.5-.3-.7-.9-.7h-.4v1.7zm0-2.3h.5c.5 0 1-.2 1-.7 0-.3-.3-.7-1-.7h-.5v1.4z"/></g></svg>